 <svg xmlns="http://www.w3.org/2000/svg" width="155" height="45" viewBox="0 0 155 45" fill="none">
          <path
            fill-rule="evenodd"
            clip-rule="evenodd"
            d="M26.9922 44.371L0.974118 35.9781L0.974119 12.1951L21.7741 0.755127L21.7741 18.9047L26.9922 20.588L26.9922 44.371ZM14.4431 16.8329L11.4121 21.4048L6.7258 19.7811L9.85263 15.0744L4.86599 13.4652L19.1742 5.43508L19.1742 18.0826L14.5946 16.6047L14.4431 16.8329Z"
            fill="#4886FF"
          />
          <path d="M44.769 30.5645V19.1395H38.2031V16.5091H54.5275V19.1395H47.9616V30.5645H44.769Z" fill="#031649" />
          <path
            d="M54.6389 27.1109C54.6389 24.8219 56.5665 23.6573 60.3012 23.6573C61.5059 23.6573 63.4335 23.7376 64.4576 23.8581C64.4576 23.7577 64.4576 23.6171 64.4576 23.4967C64.3572 22.0309 63.3733 21.4486 61.0843 21.4486C59.2972 21.4486 57.2491 21.6494 55.8034 21.9707V19.5009C57.0082 19.2399 59.3173 18.9588 61.2851 18.9588C65.5218 18.9588 67.5698 20.3442 67.5698 23.1955V30.5645H64.8391L64.5981 29.1992C63.5339 30.2232 61.9276 30.7854 59.7992 30.7854C56.4861 30.7854 54.6389 29.4602 54.6389 27.1109ZM64.4776 26.629V25.7054C63.4536 25.6853 61.6666 25.6853 60.6827 25.6853C58.7752 25.6853 57.8114 26.2074 57.8114 27.1912C57.8114 28.135 58.7149 28.5968 60.5823 28.5968C62.2489 28.5968 64.0961 27.8739 64.4776 26.629Z"
            fill="#031649"
          />
          <path d="M69.3741 22.2518L70.0769 16.3083H72.9081L71.6029 22.2518H69.3741Z" fill="#031649" />
          <path d="M74.873 30.5645V15.706H77.9652V30.5645H74.873Z" fill="#031649" />
          <path
            d="M80.3661 15.967C80.3661 14.8626 81.109 14.3406 82.2535 14.3406C83.3579 14.3406 84.1008 14.8626 84.1008 15.967C84.1008 17.1115 83.3579 17.6536 82.2535 17.6536C81.109 17.6536 80.3661 17.1115 80.3661 15.967ZM80.6873 30.5645V19.1596H83.7795V30.5645H80.6873Z"
            fill="#031649"
          />
          <path
            d="M89.3127 19.1596L89.4734 19.9427C90.899 19.3202 92.5656 18.9588 93.7904 18.9588C95.2361 18.9588 96.4408 19.4808 97.2239 20.3242C98.7901 19.5009 100.858 18.9588 102.324 18.9588C104.854 18.9588 106.661 20.545 106.661 22.6734V30.5645H103.569V23.8179C103.569 22.3923 102.746 21.5892 101.32 21.5892C100.457 21.5892 99.2318 21.9104 98.0472 22.4726C98.1074 22.6333 98.1275 22.8341 98.1275 23.0349V30.5645H95.0353V23.8179C95.0353 22.3923 94.2121 21.5892 92.7864 21.5892C91.9431 21.5892 90.7384 21.8903 89.5938 22.4325V30.5645H86.5017V19.1596H89.3127Z"
            fill="#031649"
          />
          <path
            d="M112.451 30.5847V16.5293H120.804C125.121 16.5293 127.109 18.1156 127.109 21.2881C127.109 24.5007 125.121 26.0669 120.804 26.0669H115.644V30.5847H112.451ZM120.764 19.1396H115.644V23.4566H120.764C122.932 23.4566 123.856 22.7538 123.856 21.2881C123.856 19.8424 122.932 19.1396 120.764 19.1396Z"
            fill="#4886FF"
          />
          <path
            d="M129.318 19.1797H131.969L132.39 20.7459C133.675 19.6616 135.442 18.979 137.269 18.979C138.012 18.979 138.816 19.0794 139.117 19.1597V21.9105C138.615 21.79 138.093 21.7499 137.591 21.7499C135.563 21.77 133.475 22.4928 132.41 23.818V30.5847H129.318V19.1797Z"
            fill="#4886FF"
          />
          <path
            d="M140.194 24.8822C140.194 21.3483 142.845 18.979 147.403 18.979C151.94 18.979 154.591 21.3483 154.591 24.8822C154.591 28.4162 151.94 30.7855 147.403 30.7855C142.845 30.7855 140.194 28.4162 140.194 24.8822ZM143.387 24.8822C143.387 26.9504 144.973 28.2154 147.403 28.2154C149.832 28.2154 151.398 26.9504 151.398 24.8822C151.398 22.8342 149.832 21.5491 147.403 21.5491C144.973 21.5491 143.387 22.8342 143.387 24.8822Z"
            fill="#4886FF"
          />
        </svg>